<svg width="261" height="64" viewBox="0 0 261 64" fill="none" xmlns="http://www.w3.org/2000/svg">
<path d="M261 0H23L0 63.7015H261V0Z" fill="#E8423E"/>
<path d="M51.7814 28.672C52.0054 28.6827 52.2987 28.6933 52.6614 28.704C53.024 28.7147 53.3814 28.72 53.7334 28.72C54.2347 28.72 54.7147 28.7147 55.1734 28.704C55.632 28.6933 55.9574 28.688 56.1494 28.688C57.2694 28.688 58.112 28.9227 58.6774 29.392C59.2427 29.8613 59.5254 30.464 59.5254 31.2C59.5254 31.5733 59.4454 31.9413 59.2854 32.304C59.136 32.656 58.88 32.9813 58.5174 33.28C58.1654 33.568 57.6907 33.8027 57.0934 33.984V34.016C57.936 34.1227 58.592 34.3253 59.0614 34.624C59.5414 34.912 59.8774 35.2533 60.0694 35.648C60.2614 36.0427 60.3574 36.4587 60.3574 36.896C60.3574 37.504 60.2027 38.0427 59.8934 38.512C59.5947 38.9707 59.1574 39.3333 58.5814 39.6C58.0054 39.8667 57.3174 40 56.5174 40C56.2827 40 55.9307 39.9947 55.4614 39.984C54.992 39.9627 54.4267 39.952 53.7654 39.952C53.392 39.952 53.024 39.9573 52.6614 39.968C52.2987 39.968 52.0054 39.9787 51.7814 40V39.68C52.144 39.6587 52.416 39.616 52.5974 39.552C52.7894 39.488 52.9174 39.36 52.9814 39.168C53.0454 38.976 53.0774 38.688 53.0774 38.304V30.368C53.0774 29.9733 53.0454 29.6853 52.9814 29.504C52.9174 29.312 52.7894 29.184 52.5974 29.12C52.416 29.0453 52.144 29.0027 51.7814 28.992V28.672ZM55.7494 28.992C55.2587 28.992 54.9387 29.0827 54.7894 29.264C54.64 29.4453 54.5654 29.8133 54.5654 30.368V38.304C54.5654 38.6773 54.5974 38.96 54.6614 39.152C54.7254 39.344 54.8427 39.472 55.0134 39.536C55.184 39.6 55.4347 39.632 55.7654 39.632C56.8107 39.632 57.568 39.392 58.0374 38.912C58.5174 38.4213 58.7574 37.728 58.7574 36.832C58.7574 36.0107 58.5334 35.376 58.0854 34.928C57.648 34.48 56.9227 34.256 55.9094 34.256H54.2614C54.2614 34.256 54.2614 34.2133 54.2614 34.128C54.2614 34.032 54.2614 33.984 54.2614 33.984H55.6374C56.2667 33.984 56.752 33.8667 57.0934 33.632C57.4347 33.3867 57.6694 33.0667 57.7974 32.672C57.9254 32.2667 57.9894 31.8347 57.9894 31.376C57.9894 30.5867 57.8134 29.9947 57.4614 29.6C57.12 29.1947 56.5494 28.992 55.7494 28.992ZM67.0141 28.448C68.0275 28.448 68.9128 28.6773 69.6701 29.136C70.4381 29.5947 71.0301 30.256 71.4461 31.12C71.8728 31.9733 72.0861 33.0133 72.0861 34.24C72.0861 35.4347 71.8675 36.48 71.4301 37.376C71.0035 38.272 70.4061 38.9707 69.6381 39.472C68.8701 39.9733 67.9901 40.224 66.9981 40.224C65.9848 40.224 65.0941 39.9947 64.3261 39.536C63.5688 39.0773 62.9768 38.416 62.5501 37.552C62.1341 36.688 61.9261 35.648 61.9261 34.432C61.9261 33.2373 62.1448 32.192 62.5821 31.296C63.0195 30.4 63.6168 29.7013 64.3741 29.2C65.1421 28.6987 66.0221 28.448 67.0141 28.448ZM66.9501 28.736C66.2568 28.736 65.6541 28.976 65.1421 29.456C64.6301 29.936 64.2301 30.5973 63.9421 31.44C63.6648 32.2827 63.5261 33.2587 63.5261 34.368C63.5261 35.4987 63.6808 36.4853 63.9901 37.328C64.3101 38.16 64.7368 38.8053 65.2701 39.264C65.8141 39.712 66.4115 39.936 67.0621 39.936C67.7555 39.936 68.3581 39.696 68.8701 39.216C69.3821 38.736 69.7768 38.0747 70.0541 37.232C70.3421 36.3787 70.4861 35.4027 70.4861 34.304C70.4861 33.1627 70.3261 32.176 70.0061 31.344C69.6968 30.512 69.2755 29.872 68.7421 29.424C68.2088 28.9653 67.6115 28.736 66.9501 28.736ZM78.8735 28.448C79.8868 28.448 80.7722 28.6773 81.5295 29.136C82.2975 29.5947 82.8895 30.256 83.3055 31.12C83.7322 31.9733 83.9455 33.0133 83.9455 34.24C83.9455 35.4347 83.7268 36.48 83.2895 37.376C82.8628 38.272 82.2655 38.9707 81.4975 39.472C80.7295 39.9733 79.8495 40.224 78.8575 40.224C77.8442 40.224 76.9535 39.9947 76.1855 39.536C75.4282 39.0773 74.8362 38.416 74.4095 37.552C73.9935 36.688 73.7855 35.648 73.7855 34.432C73.7855 33.2373 74.0042 32.192 74.4415 31.296C74.8788 30.4 75.4762 29.7013 76.2335 29.2C77.0015 28.6987 77.8815 28.448 78.8735 28.448ZM78.8095 28.736C78.1162 28.736 77.5135 28.976 77.0015 29.456C76.4895 29.936 76.0895 30.5973 75.8015 31.44C75.5242 32.2827 75.3855 33.2587 75.3855 34.368C75.3855 35.4987 75.5402 36.4853 75.8495 37.328C76.1695 38.16 76.5962 38.8053 77.1295 39.264C77.6735 39.712 78.2708 39.936 78.9215 39.936C79.6148 39.936 80.2175 39.696 80.7295 39.216C81.2415 38.736 81.6362 38.0747 81.9135 37.232C82.2015 36.3787 82.3455 35.4027 82.3455 34.304C82.3455 33.1627 82.1855 32.176 81.8655 31.344C81.5562 30.512 81.1348 29.872 80.6015 29.424C80.0682 28.9653 79.4708 28.736 78.8095 28.736ZM94.5119 28.672V28.992C94.1812 29.0347 93.8612 29.1413 93.5519 29.312C93.2425 29.4827 92.9332 29.7653 92.6239 30.16L89.5359 34.112L89.8879 33.328L93.7279 38.704C93.9092 38.9707 94.1065 39.1787 94.3199 39.328C94.5332 39.4773 94.8052 39.5947 95.1359 39.68V40C94.8799 39.9787 94.5599 39.968 94.1759 39.968C93.8025 39.9573 93.4825 39.952 93.2159 39.952C93.0345 39.952 92.8105 39.9573 92.5439 39.968C92.2879 39.968 91.9625 39.9787 91.5679 40V39.68C91.9305 39.6587 92.1599 39.5947 92.2559 39.488C92.3519 39.3813 92.3145 39.2053 92.1439 38.96L89.8079 35.44C89.5945 35.1093 89.4025 34.864 89.2319 34.704C89.0719 34.5333 88.9012 34.4213 88.7199 34.368C88.5492 34.3147 88.3305 34.2827 88.0639 34.272V33.952C88.5119 33.9413 88.8852 33.856 89.1839 33.696C89.4932 33.5253 89.7492 33.312 89.9519 33.056L91.4879 31.104C91.8399 30.656 92.0799 30.2773 92.2079 29.968C92.3359 29.6587 92.3305 29.424 92.1919 29.264C92.0532 29.0933 91.7599 29.0027 91.3119 28.992V28.672C91.5145 28.6827 91.7225 28.6933 91.9359 28.704C92.1492 28.704 92.3572 28.7093 92.5599 28.72C92.7732 28.72 92.9705 28.72 93.1519 28.72C93.4292 28.72 93.6852 28.7147 93.9199 28.704C94.1545 28.6933 94.3519 28.6827 94.5119 28.672ZM89.4239 28.672V28.992C89.0612 29.0027 88.7839 29.0453 88.5919 29.12C88.4105 29.184 88.2879 29.312 88.2239 29.504C88.1599 29.6853 88.1279 29.9733 88.1279 30.368V38.304C88.1279 38.688 88.1599 38.976 88.2239 39.168C88.2879 39.36 88.4105 39.488 88.5919 39.552C88.7839 39.616 89.0612 39.6587 89.4239 39.68V40C89.1785 39.9787 88.8692 39.968 88.4959 39.968C88.1332 39.9573 87.7652 39.952 87.3919 39.952C86.9759 39.952 86.5865 39.9573 86.2239 39.968C85.8612 39.968 85.5679 39.9787 85.3439 40V39.68C85.7065 39.6587 85.9785 39.616 86.1599 39.552C86.3519 39.488 86.4799 39.36 86.5439 39.168C86.6079 38.976 86.6399 38.688 86.6399 38.304V30.368C86.6399 29.9733 86.6079 29.6853 86.5439 29.504C86.4799 29.312 86.3519 29.184 86.1599 29.12C85.9785 29.0453 85.7065 29.0027 85.3439 28.992V28.672C85.5679 28.6827 85.8612 28.6933 86.2239 28.704C86.5865 28.7147 86.9759 28.72 87.3919 28.72C87.7652 28.72 88.1332 28.7147 88.4959 28.704C88.8692 28.6933 89.1785 28.6827 89.4239 28.672ZM103.762 28.592L107.666 38.656C107.826 39.0613 108.007 39.3333 108.21 39.472C108.412 39.6 108.599 39.6693 108.77 39.68V40C108.556 39.9787 108.295 39.968 107.986 39.968C107.676 39.9573 107.367 39.952 107.058 39.952C106.642 39.952 106.252 39.9573 105.89 39.968C105.527 39.968 105.234 39.9787 105.01 40V39.68C105.554 39.6587 105.9 39.568 106.05 39.408C106.199 39.2373 106.167 38.88 105.954 38.336L102.978 30.384L103.234 30.176L100.45 37.408C100.279 37.8347 100.178 38.1973 100.146 38.496C100.114 38.784 100.14 39.0133 100.226 39.184C100.322 39.3547 100.476 39.4773 100.69 39.552C100.914 39.6267 101.191 39.6693 101.522 39.68V40C101.223 39.9787 100.908 39.968 100.578 39.968C100.258 39.9573 99.9591 39.952 99.6818 39.952C99.4151 39.952 99.1858 39.9573 98.9938 39.968C98.8124 39.968 98.6418 39.9787 98.4817 40V39.68C98.6951 39.6267 98.9138 39.504 99.1378 39.312C99.3618 39.1093 99.5644 38.768 99.7458 38.288L103.506 28.592C103.548 28.592 103.591 28.592 103.634 28.592C103.676 28.592 103.719 28.592 103.762 28.592ZM105.714 35.392V35.712H100.946L101.106 35.392H105.714ZM119.079 28.672V28.992C118.717 29.0027 118.439 29.056 118.247 29.152C118.066 29.248 117.943 29.4027 117.879 29.616C117.815 29.8293 117.783 30.1333 117.783 30.528V40.08C117.719 40.08 117.655 40.08 117.591 40.08C117.538 40.08 117.479 40.08 117.415 40.08L110.695 29.696V38.144C110.695 38.528 110.727 38.832 110.791 39.056C110.866 39.2693 111.005 39.424 111.207 39.52C111.421 39.6053 111.735 39.6587 112.151 39.68V40C111.959 39.9787 111.709 39.968 111.399 39.968C111.09 39.9573 110.797 39.952 110.519 39.952C110.253 39.952 109.981 39.9573 109.703 39.968C109.437 39.968 109.213 39.9787 109.031 40V39.68C109.394 39.6587 109.666 39.6053 109.847 39.52C110.039 39.424 110.167 39.2693 110.231 39.056C110.295 38.832 110.327 38.528 110.327 38.144V30.368C110.327 29.9733 110.295 29.6853 110.231 29.504C110.167 29.312 110.039 29.184 109.847 29.12C109.666 29.0453 109.394 29.0027 109.031 28.992V28.672C109.213 28.6827 109.437 28.6933 109.703 28.704C109.981 28.7147 110.253 28.72 110.519 28.72C110.754 28.72 110.978 28.7147 111.191 28.704C111.405 28.6933 111.597 28.6827 111.767 28.672L117.415 37.376V30.528C117.415 30.1333 117.378 29.8293 117.303 29.616C117.239 29.4027 117.101 29.248 116.887 29.152C116.685 29.056 116.375 29.0027 115.959 28.992V28.672C116.151 28.6827 116.402 28.6933 116.711 28.704C117.031 28.7147 117.325 28.72 117.591 28.72C117.869 28.72 118.141 28.7147 118.407 28.704C118.685 28.6933 118.909 28.6827 119.079 28.672ZM128.262 28.592L132.166 38.656C132.326 39.0613 132.507 39.3333 132.71 39.472C132.912 39.6 133.099 39.6693 133.27 39.68V40C133.056 39.9787 132.795 39.968 132.486 39.968C132.176 39.9573 131.867 39.952 131.558 39.952C131.142 39.952 130.752 39.9573 130.39 39.968C130.027 39.968 129.734 39.9787 129.51 40V39.68C130.054 39.6587 130.4 39.568 130.55 39.408C130.699 39.2373 130.667 38.88 130.454 38.336L127.478 30.384L127.734 30.176L124.95 37.408C124.779 37.8347 124.678 38.1973 124.646 38.496C124.614 38.784 124.64 39.0133 124.726 39.184C124.822 39.3547 124.976 39.4773 125.19 39.552C125.414 39.6267 125.691 39.6693 126.022 39.68V40C125.723 39.9787 125.408 39.968 125.078 39.968C124.758 39.9573 124.459 39.952 124.182 39.952C123.915 39.952 123.686 39.9573 123.494 39.968C123.312 39.968 123.142 39.9787 122.982 40V39.68C123.195 39.6267 123.414 39.504 123.638 39.312C123.862 39.1093 124.064 38.768 124.246 38.288L128.006 28.592C128.048 28.592 128.091 28.592 128.134 28.592C128.176 28.592 128.219 28.592 128.262 28.592ZM130.214 35.392V35.712H125.446L125.606 35.392H130.214ZM133.531 28.672C133.755 28.6827 134.049 28.6933 134.411 28.704C134.774 28.7147 135.131 28.72 135.483 28.72C135.985 28.72 136.465 28.7147 136.923 28.704C137.382 28.6933 137.707 28.688 137.899 28.688C139.19 28.688 140.155 28.9813 140.795 29.568C141.435 30.1547 141.755 30.912 141.755 31.84C141.755 32.224 141.691 32.6293 141.563 33.056C141.435 33.472 141.211 33.8613 140.891 34.224C140.582 34.576 140.155 34.864 139.611 35.088C139.067 35.312 138.379 35.424 137.547 35.424H136.011V35.104H137.387C138.145 35.104 138.721 34.96 139.115 34.672C139.521 34.384 139.793 34.0053 139.931 33.536C140.081 33.0667 140.155 32.56 140.155 32.016C140.155 31.0027 139.953 30.2453 139.547 29.744C139.153 29.2427 138.47 28.992 137.499 28.992C137.009 28.992 136.689 29.0827 136.539 29.264C136.39 29.4453 136.315 29.8133 136.315 30.368V38.304C136.315 38.688 136.353 38.976 136.427 39.168C136.513 39.36 136.673 39.488 136.907 39.552C137.142 39.616 137.483 39.6587 137.931 39.68V40C137.654 39.9787 137.302 39.968 136.875 39.968C136.449 39.9573 136.017 39.952 135.579 39.952C135.163 39.952 134.774 39.9573 134.411 39.968C134.049 39.968 133.755 39.9787 133.531 40V39.68C133.894 39.6587 134.166 39.616 134.347 39.552C134.539 39.488 134.667 39.36 134.731 39.168C134.795 38.976 134.827 38.688 134.827 38.304V30.368C134.827 29.9733 134.795 29.6853 134.731 29.504C134.667 29.312 134.539 29.184 134.347 29.12C134.166 29.0453 133.894 29.0027 133.531 28.992V28.672ZM142.891 28.672C143.115 28.6827 143.408 28.6933 143.771 28.704C144.133 28.7147 144.491 28.72 144.843 28.72C145.344 28.72 145.824 28.7147 146.283 28.704C146.741 28.6933 147.067 28.688 147.259 28.688C148.549 28.688 149.515 28.9813 150.155 29.568C150.795 30.1547 151.115 30.912 151.115 31.84C151.115 32.224 151.051 32.6293 150.923 33.056C150.795 33.472 150.571 33.8613 150.251 34.224C149.941 34.576 149.515 34.864 148.971 35.088C148.427 35.312 147.739 35.424 146.907 35.424H145.371V35.104H146.747C147.504 35.104 148.08 34.96 148.475 34.672C148.88 34.384 149.152 34.0053 149.291 33.536C149.44 33.0667 149.515 32.56 149.515 32.016C149.515 31.0027 149.312 30.2453 148.907 29.744C148.512 29.2427 147.829 28.992 146.859 28.992C146.368 28.992 146.048 29.0827 145.899 29.264C145.749 29.4453 145.675 29.8133 145.675 30.368V38.304C145.675 38.688 145.712 38.976 145.787 39.168C145.872 39.36 146.032 39.488 146.267 39.552C146.501 39.616 146.843 39.6587 147.291 39.68V40C147.013 39.9787 146.661 39.968 146.235 39.968C145.808 39.9573 145.376 39.952 144.939 39.952C144.523 39.952 144.133 39.9573 143.771 39.968C143.408 39.968 143.115 39.9787 142.891 40V39.68C143.253 39.6587 143.525 39.616 143.707 39.552C143.899 39.488 144.027 39.36 144.091 39.168C144.155 38.976 144.187 38.688 144.187 38.304V30.368C144.187 29.9733 144.155 29.6853 144.091 29.504C144.027 29.312 143.899 29.184 143.707 29.12C143.525 29.0453 143.253 29.0027 142.891 28.992V28.672ZM157.514 28.448C158.527 28.448 159.413 28.6773 160.17 29.136C160.938 29.5947 161.53 30.256 161.946 31.12C162.373 31.9733 162.586 33.0133 162.586 34.24C162.586 35.4347 162.367 36.48 161.93 37.376C161.503 38.272 160.906 38.9707 160.138 39.472C159.37 39.9733 158.49 40.224 157.498 40.224C156.485 40.224 155.594 39.9947 154.826 39.536C154.069 39.0773 153.477 38.416 153.05 37.552C152.634 36.688 152.426 35.648 152.426 34.432C152.426 33.2373 152.645 32.192 153.082 31.296C153.519 30.4 154.117 29.7013 154.874 29.2C155.642 28.6987 156.522 28.448 157.514 28.448ZM157.45 28.736C156.757 28.736 156.154 28.976 155.642 29.456C155.13 29.936 154.73 30.5973 154.442 31.44C154.165 32.2827 154.026 33.2587 154.026 34.368C154.026 35.4987 154.181 36.4853 154.49 37.328C154.81 38.16 155.237 38.8053 155.77 39.264C156.314 39.712 156.911 39.936 157.562 39.936C158.255 39.936 158.858 39.696 159.37 39.216C159.882 38.736 160.277 38.0747 160.554 37.232C160.842 36.3787 160.986 35.4027 160.986 34.304C160.986 33.1627 160.826 32.176 160.506 31.344C160.197 30.512 159.775 29.872 159.242 29.424C158.709 28.9653 158.111 28.736 157.45 28.736ZM168.065 28.672V28.992C167.702 29.0027 167.425 29.0453 167.233 29.12C167.051 29.184 166.929 29.312 166.865 29.504C166.801 29.6853 166.769 29.9733 166.769 30.368V38.304C166.769 38.688 166.801 38.976 166.865 39.168C166.929 39.36 167.051 39.488 167.233 39.552C167.425 39.616 167.702 39.6587 168.065 39.68V40C167.819 39.9787 167.51 39.968 167.137 39.968C166.774 39.9573 166.406 39.952 166.033 39.952C165.617 39.952 165.227 39.9573 164.865 39.968C164.502 39.968 164.209 39.9787 163.985 40V39.68C164.347 39.6587 164.619 39.616 164.801 39.552C164.993 39.488 165.121 39.36 165.185 39.168C165.249 38.976 165.281 38.688 165.281 38.304V30.368C165.281 29.9733 165.249 29.6853 165.185 29.504C165.121 29.312 164.993 29.184 164.801 29.12C164.619 29.0453 164.347 29.0027 163.985 28.992V28.672C164.209 28.6827 164.502 28.6933 164.865 28.704C165.227 28.7147 165.617 28.72 166.033 28.72C166.406 28.72 166.774 28.7147 167.137 28.704C167.51 28.6933 167.819 28.6827 168.065 28.672ZM179.454 28.672V28.992C179.092 29.0027 178.814 29.056 178.622 29.152C178.441 29.248 178.318 29.4027 178.254 29.616C178.19 29.8293 178.158 30.1333 178.158 30.528V40.08C178.094 40.08 178.03 40.08 177.966 40.08C177.913 40.08 177.854 40.08 177.79 40.08L171.07 29.696V38.144C171.07 38.528 171.102 38.832 171.166 39.056C171.241 39.2693 171.38 39.424 171.582 39.52C171.796 39.6053 172.11 39.6587 172.526 39.68V40C172.334 39.9787 172.084 39.968 171.774 39.968C171.465 39.9573 171.172 39.952 170.894 39.952C170.628 39.952 170.356 39.9573 170.078 39.968C169.812 39.968 169.588 39.9787 169.406 40V39.68C169.769 39.6587 170.041 39.6053 170.222 39.52C170.414 39.424 170.542 39.2693 170.606 39.056C170.67 38.832 170.702 38.528 170.702 38.144V30.368C170.702 29.9733 170.67 29.6853 170.606 29.504C170.542 29.312 170.414 29.184 170.222 29.12C170.041 29.0453 169.769 29.0027 169.406 28.992V28.672C169.588 28.6827 169.812 28.6933 170.078 28.704C170.356 28.7147 170.628 28.72 170.894 28.72C171.129 28.72 171.353 28.7147 171.566 28.704C171.78 28.6933 171.972 28.6827 172.142 28.672L177.79 37.376V30.528C177.79 30.1333 177.753 29.8293 177.678 29.616C177.614 29.4027 177.476 29.248 177.262 29.152C177.06 29.056 176.75 29.0027 176.334 28.992V28.672C176.526 28.6827 176.777 28.6933 177.086 28.704C177.406 28.7147 177.7 28.72 177.966 28.72C178.244 28.72 178.516 28.7147 178.782 28.704C179.06 28.6933 179.284 28.6827 179.454 28.672ZM189.503 28.672C189.461 29.0773 189.429 29.472 189.407 29.856C189.397 30.2293 189.391 30.5173 189.391 30.72C189.391 30.976 189.397 31.216 189.407 31.44C189.418 31.664 189.429 31.8613 189.439 32.032H189.071C188.997 31.2853 188.895 30.6987 188.767 30.272C188.639 29.8347 188.415 29.52 188.095 29.328C187.775 29.136 187.279 29.04 186.607 29.04H185.743V38.144C185.743 38.5707 185.781 38.8907 185.855 39.104C185.941 39.3173 186.101 39.4613 186.335 39.536C186.57 39.6107 186.911 39.6587 187.359 39.68V40C187.082 39.9787 186.73 39.968 186.303 39.968C185.877 39.9573 185.445 39.952 185.007 39.952C184.527 39.952 184.074 39.9573 183.647 39.968C183.231 39.968 182.895 39.9787 182.639 40V39.68C183.087 39.6587 183.429 39.6107 183.663 39.536C183.898 39.4613 184.053 39.3173 184.127 39.104C184.213 38.8907 184.255 38.5707 184.255 38.144V29.04H183.391C182.73 29.04 182.234 29.136 181.903 29.328C181.583 29.52 181.359 29.8347 181.231 30.272C181.103 30.6987 181.002 31.2853 180.927 32.032H180.559C180.581 31.8613 180.591 31.664 180.591 31.44C180.602 31.216 180.607 30.976 180.607 30.72C180.607 30.5173 180.597 30.2293 180.575 29.856C180.565 29.472 180.538 29.0773 180.495 28.672C180.943 28.6827 181.429 28.6933 181.951 28.704C182.485 28.7147 183.018 28.72 183.551 28.72C184.085 28.72 184.57 28.72 185.007 28.72C185.445 28.72 185.925 28.72 186.447 28.72C186.981 28.72 187.514 28.7147 188.047 28.704C188.581 28.6933 189.066 28.6827 189.503 28.672ZM203.233 28.672V28.992C202.87 29.0027 202.593 29.0453 202.401 29.12C202.219 29.184 202.097 29.312 202.033 29.504C201.969 29.6853 201.937 29.9733 201.937 30.368V38.304C201.937 38.688 201.969 38.976 202.033 39.168C202.097 39.36 202.219 39.488 202.401 39.552C202.593 39.616 202.87 39.6587 203.233 39.68V40C202.987 39.9787 202.678 39.968 202.305 39.968C201.942 39.9573 201.574 39.952 201.201 39.952C200.785 39.952 200.395 39.9573 200.033 39.968C199.67 39.968 199.377 39.9787 199.153 40V39.68C199.515 39.6587 199.787 39.616 199.969 39.552C200.161 39.488 200.289 39.36 200.353 39.168C200.417 38.976 200.449 38.688 200.449 38.304V29.504L200.513 29.552L196.593 40.08H196.337L192.305 29.696V38.144C192.305 38.528 192.337 38.832 192.401 39.056C192.475 39.2693 192.614 39.424 192.817 39.52C193.03 39.6053 193.345 39.6587 193.761 39.68V40C193.569 39.9787 193.318 39.968 193.009 39.968C192.699 39.9573 192.406 39.952 192.129 39.952C191.862 39.952 191.59 39.9573 191.313 39.968C191.046 39.968 190.822 39.9787 190.641 40V39.68C191.003 39.6587 191.275 39.6053 191.457 39.52C191.649 39.424 191.777 39.2693 191.841 39.056C191.905 38.832 191.937 38.528 191.937 38.144V30.368C191.937 29.9733 191.905 29.6853 191.841 29.504C191.777 29.312 191.649 29.184 191.457 29.12C191.275 29.0453 191.003 29.0027 190.641 28.992V28.672C190.822 28.6827 191.046 28.6933 191.313 28.704C191.59 28.7147 191.862 28.72 192.129 28.72C192.363 28.72 192.603 28.7147 192.849 28.704C193.105 28.6933 193.318 28.6827 193.489 28.672L197.121 38.24L196.849 38.368L200.449 28.72C200.577 28.72 200.699 28.72 200.817 28.72C200.945 28.72 201.073 28.72 201.201 28.72C201.574 28.72 201.942 28.7147 202.305 28.704C202.678 28.6933 202.987 28.6827 203.233 28.672ZM212.562 28.672C212.52 29.0453 212.488 29.408 212.466 29.76C212.456 30.112 212.45 30.3787 212.45 30.56C212.45 30.752 212.456 30.9387 212.466 31.12C212.477 31.2907 212.488 31.4347 212.498 31.552H212.13C212.066 30.9227 211.976 30.4267 211.858 30.064C211.741 29.6907 211.538 29.4293 211.25 29.28C210.973 29.12 210.552 29.04 209.986 29.04H208.658C208.296 29.04 208.018 29.072 207.826 29.136C207.645 29.1893 207.522 29.312 207.458 29.504C207.394 29.6853 207.362 29.9733 207.362 30.368V38.304C207.362 38.688 207.394 38.976 207.458 39.168C207.522 39.36 207.645 39.488 207.826 39.552C208.018 39.6053 208.296 39.632 208.658 39.632H209.826C210.498 39.632 211.005 39.5413 211.346 39.36C211.698 39.1787 211.949 38.8853 212.098 38.48C212.258 38.064 212.376 37.504 212.45 36.8H212.818C212.786 37.088 212.77 37.472 212.77 37.952C212.77 38.1547 212.776 38.448 212.786 38.832C212.808 39.2053 212.84 39.5947 212.882 40C212.338 39.9787 211.725 39.968 211.042 39.968C210.36 39.9573 209.752 39.952 209.218 39.952C208.984 39.952 208.68 39.952 208.306 39.952C207.944 39.952 207.549 39.9573 207.122 39.968C206.696 39.968 206.264 39.9733 205.826 39.984C205.389 39.984 204.973 39.9893 204.578 40V39.68C204.941 39.6587 205.213 39.616 205.394 39.552C205.586 39.488 205.714 39.36 205.778 39.168C205.842 38.976 205.874 38.688 205.874 38.304V30.368C205.874 29.9733 205.842 29.6853 205.778 29.504C205.714 29.312 205.586 29.184 205.394 29.12C205.213 29.0453 204.941 29.0027 204.578 28.992V28.672C204.973 28.6827 205.389 28.6933 205.826 28.704C206.264 28.704 206.696 28.7093 207.122 28.72C207.549 28.72 207.944 28.72 208.306 28.72C208.68 28.72 208.984 28.72 209.218 28.72C209.709 28.72 210.264 28.72 210.882 28.72C211.512 28.7093 212.072 28.6933 212.562 28.672ZM209.81 34.144C209.81 34.144 209.81 34.1973 209.81 34.304C209.81 34.4107 209.81 34.464 209.81 34.464H206.882C206.882 34.464 206.882 34.4107 206.882 34.304C206.882 34.1973 206.882 34.144 206.882 34.144H209.81ZM210.274 32.032C210.232 32.64 210.21 33.104 210.21 33.424C210.221 33.744 210.226 34.0373 210.226 34.304C210.226 34.5707 210.232 34.864 210.242 35.184C210.253 35.504 210.28 35.968 210.322 36.576H209.954C209.912 36.2347 209.858 35.904 209.794 35.584C209.741 35.2533 209.613 34.9867 209.41 34.784C209.218 34.5707 208.888 34.464 208.418 34.464V34.144C208.77 34.144 209.037 34.0747 209.218 33.936C209.41 33.7867 209.549 33.6 209.634 33.376C209.72 33.152 209.778 32.9227 209.81 32.688C209.842 32.4427 209.874 32.224 209.906 32.032H210.274ZM224.376 28.672V28.992C224.014 29.0027 223.736 29.056 223.544 29.152C223.363 29.248 223.24 29.4027 223.176 29.616C223.112 29.8293 223.08 30.1333 223.08 30.528V40.08C223.016 40.08 222.952 40.08 222.888 40.08C222.835 40.08 222.776 40.08 222.712 40.08L215.992 29.696V38.144C215.992 38.528 216.024 38.832 216.088 39.056C216.163 39.2693 216.302 39.424 216.504 39.52C216.718 39.6053 217.032 39.6587 217.448 39.68V40C217.256 39.9787 217.006 39.968 216.696 39.968C216.387 39.9573 216.094 39.952 215.816 39.952C215.55 39.952 215.278 39.9573 215 39.968C214.734 39.968 214.51 39.9787 214.328 40V39.68C214.691 39.6587 214.963 39.6053 215.144 39.52C215.336 39.424 215.464 39.2693 215.528 39.056C215.592 38.832 215.624 38.528 215.624 38.144V30.368C215.624 29.9733 215.592 29.6853 215.528 29.504C215.464 29.312 215.336 29.184 215.144 29.12C214.963 29.0453 214.691 29.0027 214.328 28.992V28.672C214.51 28.6827 214.734 28.6933 215 28.704C215.278 28.7147 215.55 28.72 215.816 28.72C216.051 28.72 216.275 28.7147 216.488 28.704C216.702 28.6933 216.894 28.6827 217.064 28.672L222.712 37.376V30.528C222.712 30.1333 222.675 29.8293 222.6 29.616C222.536 29.4027 222.398 29.248 222.184 29.152C221.982 29.056 221.672 29.0027 221.256 28.992V28.672C221.448 28.6827 221.699 28.6933 222.008 28.704C222.328 28.7147 222.622 28.72 222.888 28.72C223.166 28.72 223.438 28.7147 223.704 28.704C223.982 28.6933 224.206 28.6827 224.376 28.672ZM234.425 28.672C234.382 29.0773 234.35 29.472 234.329 29.856C234.318 30.2293 234.313 30.5173 234.313 30.72C234.313 30.976 234.318 31.216 234.329 31.44C234.34 31.664 234.35 31.8613 234.361 32.032H233.993C233.918 31.2853 233.817 30.6987 233.689 30.272C233.561 29.8347 233.337 29.52 233.017 29.328C232.697 29.136 232.201 29.04 231.529 29.04H230.665V38.144C230.665 38.5707 230.702 38.8907 230.777 39.104C230.862 39.3173 231.022 39.4613 231.257 39.536C231.492 39.6107 231.833 39.6587 232.281 39.68V40C232.004 39.9787 231.652 39.968 231.225 39.968C230.798 39.9573 230.366 39.952 229.929 39.952C229.449 39.952 228.996 39.9573 228.569 39.968C228.153 39.968 227.817 39.9787 227.561 40V39.68C228.009 39.6587 228.35 39.6107 228.585 39.536C228.82 39.4613 228.974 39.3173 229.049 39.104C229.134 38.8907 229.177 38.5707 229.177 38.144V29.04H228.313C227.652 29.04 227.156 29.136 226.825 29.328C226.505 29.52 226.281 29.8347 226.153 30.272C226.025 30.6987 225.924 31.2853 225.849 32.032H225.481C225.502 31.8613 225.513 31.664 225.513 31.44C225.524 31.216 225.529 30.976 225.529 30.72C225.529 30.5173 225.518 30.2293 225.497 29.856C225.486 29.472 225.46 29.0773 225.417 28.672C225.865 28.6827 226.35 28.6933 226.873 28.704C227.406 28.7147 227.94 28.72 228.473 28.72C229.006 28.72 229.492 28.72 229.929 28.72C230.366 28.72 230.846 28.72 231.369 28.72C231.902 28.72 232.436 28.7147 232.969 28.704C233.502 28.6933 233.988 28.6827 234.425 28.672Z" fill="white"/>
</svg>
