<svg width="261" height="64" viewBox="0 0 261 64" fill="none" xmlns="http://www.w3.org/2000/svg">
<path d="M0 63.7015H238L261 -2.5034e-06H0V63.7015Z" fill="#B49A67"/>
<path d="M77.8908 28.672C78.1148 28.6827 78.4081 28.6933 78.7708 28.704C79.1334 28.7147 79.4908 28.72 79.8428 28.72C80.3441 28.72 80.8241 28.7147 81.2828 28.704C81.7414 28.6933 82.0668 28.688 82.2588 28.688C83.5494 28.688 84.5148 28.9813 85.1548 29.568C85.7948 30.1547 86.1148 30.912 86.1148 31.84C86.1148 32.224 86.0508 32.6293 85.9228 33.056C85.7948 33.472 85.5708 33.8613 85.2508 34.224C84.9414 34.576 84.5148 34.864 83.9708 35.088C83.4268 35.312 82.7388 35.424 81.9068 35.424H80.3708V35.104H81.7468C82.5041 35.104 83.0801 34.96 83.4748 34.672C83.8801 34.384 84.1521 34.0053 84.2908 33.536C84.4401 33.0667 84.5148 32.56 84.5148 32.016C84.5148 31.0027 84.3121 30.2453 83.9068 29.744C83.5121 29.2427 82.8294 28.992 81.8588 28.992C81.3681 28.992 81.0481 29.0827 80.8988 29.264C80.7494 29.4453 80.6748 29.8133 80.6748 30.368V38.304C80.6748 38.688 80.7121 38.976 80.7868 39.168C80.8721 39.36 81.0321 39.488 81.2668 39.552C81.5014 39.616 81.8428 39.6587 82.2908 39.68V40C82.0134 39.9787 81.6614 39.968 81.2348 39.968C80.8081 39.9573 80.3761 39.952 79.9388 39.952C79.5228 39.952 79.1334 39.9573 78.7708 39.968C78.4081 39.968 78.1148 39.9787 77.8908 40V39.68C78.2534 39.6587 78.5254 39.616 78.7068 39.552C78.8988 39.488 79.0268 39.36 79.0908 39.168C79.1548 38.976 79.1868 38.688 79.1868 38.304V30.368C79.1868 29.9733 79.1548 29.6853 79.0908 29.504C79.0268 29.312 78.8988 29.184 78.7068 29.12C78.5254 29.0453 78.2534 29.0027 77.8908 28.992V28.672ZM87.2501 28.672C87.4741 28.6827 87.7675 28.6933 88.1301 28.704C88.4928 28.7147 88.8501 28.72 89.2021 28.72C89.7035 28.72 90.1835 28.7147 90.6421 28.704C91.1008 28.6933 91.4261 28.688 91.6181 28.688C92.4821 28.688 93.1968 28.8107 93.7621 29.056C94.3381 29.3013 94.7648 29.6373 95.0421 30.064C95.3301 30.48 95.4741 30.9493 95.4741 31.472C95.4741 31.792 95.4101 32.1333 95.2821 32.496C95.1541 32.8587 94.9301 33.2 94.6101 33.52C94.3008 33.84 93.8741 34.1067 93.3301 34.32C92.7861 34.5227 92.0981 34.624 91.2661 34.624H89.7301V34.304H91.1061C91.8635 34.304 92.4395 34.1867 92.8341 33.952C93.2395 33.7067 93.5115 33.3867 93.6501 32.992C93.7995 32.5867 93.8741 32.1387 93.8741 31.648C93.8741 30.8053 93.6715 30.1547 93.2661 29.696C92.8715 29.2267 92.1888 28.992 91.2181 28.992C90.7275 28.992 90.4075 29.0827 90.2581 29.264C90.1088 29.4453 90.0341 29.8133 90.0341 30.368V38.304C90.0341 38.688 90.0661 38.976 90.1301 39.168C90.1941 39.36 90.3168 39.488 90.4981 39.552C90.6901 39.616 90.9675 39.6587 91.3301 39.68V40C91.0848 39.9787 90.7755 39.968 90.4021 39.968C90.0395 39.9573 89.6715 39.952 89.2981 39.952C88.8821 39.952 88.4928 39.9573 88.1301 39.968C87.7675 39.968 87.4741 39.9787 87.2501 40V39.68C87.6128 39.6587 87.8848 39.616 88.0661 39.552C88.2581 39.488 88.3861 39.36 88.4501 39.168C88.5141 38.976 88.5461 38.688 88.5461 38.304V30.368C88.5461 29.9733 88.5141 29.6853 88.4501 29.504C88.3861 29.312 88.2581 29.184 88.0661 29.12C87.8848 29.0453 87.6128 29.0027 87.2501 28.992V28.672ZM89.7941 34.352C90.3701 34.3733 90.8235 34.4 91.1541 34.432C91.4848 34.4533 91.7515 34.4747 91.9541 34.496C92.1675 34.5173 92.3701 34.544 92.5621 34.576C93.2768 34.6933 93.7888 34.912 94.0981 35.232C94.4181 35.5413 94.6528 36.0267 94.8021 36.688L95.2021 38.32C95.3088 38.7893 95.4155 39.1307 95.5221 39.344C95.6395 39.5467 95.8155 39.6427 96.0501 39.632C96.2315 39.6213 96.3808 39.5627 96.4981 39.456C96.6261 39.3493 96.7595 39.2053 96.8981 39.024L97.1381 39.2C96.9141 39.5307 96.6795 39.7867 96.4341 39.968C96.1995 40.1387 95.8635 40.224 95.4261 40.224C95.0315 40.224 94.6848 40.1067 94.3861 39.872C94.0875 39.6373 93.8635 39.1787 93.7141 38.496L93.3621 36.896C93.2661 36.4373 93.1541 36.0427 93.0261 35.712C92.9088 35.3707 92.7381 35.104 92.5141 34.912C92.3008 34.72 91.9808 34.624 91.5541 34.624H89.8261L89.7941 34.352ZM102.889 28.448C103.902 28.448 104.788 28.6773 105.545 29.136C106.313 29.5947 106.905 30.256 107.321 31.12C107.748 31.9733 107.961 33.0133 107.961 34.24C107.961 35.4347 107.742 36.48 107.305 37.376C106.878 38.272 106.281 38.9707 105.513 39.472C104.745 39.9733 103.865 40.224 102.873 40.224C101.86 40.224 100.969 39.9947 100.201 39.536C99.4438 39.0773 98.8518 38.416 98.4251 37.552C98.0091 36.688 97.8011 35.648 97.8011 34.432C97.8011 33.2373 98.0198 32.192 98.4571 31.296C98.8945 30.4 99.4918 29.7013 100.249 29.2C101.017 28.6987 101.897 28.448 102.889 28.448ZM102.825 28.736C102.132 28.736 101.529 28.976 101.017 29.456C100.505 29.936 100.105 30.5973 99.8171 31.44C99.5398 32.2827 99.4011 33.2587 99.4011 34.368C99.4011 35.4987 99.5558 36.4853 99.8651 37.328C100.185 38.16 100.612 38.8053 101.145 39.264C101.689 39.712 102.286 39.936 102.937 39.936C103.63 39.936 104.233 39.696 104.745 39.216C105.257 38.736 105.652 38.0747 105.929 37.232C106.217 36.3787 106.361 35.4027 106.361 34.304C106.361 33.1627 106.201 32.176 105.881 31.344C105.572 30.512 105.15 29.872 104.617 29.424C104.084 28.9653 103.486 28.736 102.825 28.736ZM114.829 28.448C115.522 28.448 116.082 28.5547 116.509 28.768C116.935 28.9707 117.335 29.2107 117.709 29.488C117.847 29.5947 117.954 29.648 118.029 29.648C118.231 29.648 118.365 29.3227 118.429 28.672H118.797C118.775 29.0667 118.759 29.5467 118.749 30.112C118.738 30.6773 118.733 31.424 118.733 32.352H118.365C118.29 31.904 118.199 31.472 118.093 31.056C117.986 30.64 117.81 30.2827 117.565 29.984C117.255 29.5893 116.85 29.2853 116.349 29.072C115.847 28.848 115.33 28.736 114.797 28.736C114.263 28.736 113.778 28.8693 113.341 29.136C112.914 29.392 112.546 29.7653 112.237 30.256C111.927 30.7467 111.687 31.3387 111.517 32.032C111.357 32.7147 111.277 33.488 111.277 34.352C111.277 36.272 111.586 37.68 112.205 38.576C112.823 39.4613 113.783 39.904 115.085 39.904C115.469 39.904 115.799 39.8507 116.077 39.744C116.365 39.6267 116.589 39.5147 116.749 39.408C116.951 39.2693 117.079 39.1413 117.133 39.024C117.186 38.896 117.213 38.7307 117.213 38.528V36.992C117.213 36.5547 117.17 36.2293 117.085 36.016C116.999 35.8027 116.839 35.6587 116.605 35.584C116.381 35.5093 116.045 35.4667 115.597 35.456V35.136C115.789 35.1467 116.013 35.1573 116.269 35.168C116.525 35.168 116.791 35.1733 117.069 35.184C117.357 35.184 117.618 35.184 117.852 35.184C118.205 35.184 118.519 35.1787 118.797 35.168C119.085 35.1573 119.325 35.1467 119.517 35.136V35.456C119.282 35.4667 119.106 35.504 118.989 35.568C118.871 35.632 118.791 35.76 118.749 35.952C118.717 36.144 118.701 36.4373 118.701 36.832V40H118.381C118.37 39.8187 118.327 39.6213 118.253 39.408C118.189 39.1947 118.087 39.088 117.949 39.088C117.885 39.088 117.821 39.104 117.757 39.136C117.693 39.168 117.581 39.2427 117.421 39.36C117.069 39.6267 116.695 39.84 116.301 40C115.906 40.1493 115.447 40.224 114.925 40.224C113.826 40.224 112.882 40 112.093 39.552C111.314 39.0933 110.717 38.4373 110.301 37.584C109.885 36.7307 109.677 35.712 109.677 34.528C109.677 33.28 109.901 32.2027 110.349 31.296C110.797 30.3893 111.405 29.6907 112.173 29.2C112.951 28.6987 113.837 28.448 114.829 28.448ZM120.735 28.672C120.959 28.6827 121.252 28.6933 121.615 28.704C121.977 28.7147 122.335 28.72 122.687 28.72C123.188 28.72 123.668 28.7147 124.127 28.704C124.585 28.6933 124.911 28.688 125.103 28.688C125.967 28.688 126.681 28.8107 127.247 29.056C127.823 29.3013 128.249 29.6373 128.527 30.064C128.815 30.48 128.959 30.9493 128.959 31.472C128.959 31.792 128.895 32.1333 128.767 32.496C128.639 32.8587 128.415 33.2 128.095 33.52C127.785 33.84 127.359 34.1067 126.815 34.32C126.271 34.5227 125.583 34.624 124.751 34.624H123.215V34.304H124.591C125.348 34.304 125.924 34.1867 126.319 33.952C126.724 33.7067 126.996 33.3867 127.135 32.992C127.284 32.5867 127.359 32.1387 127.359 31.648C127.359 30.8053 127.156 30.1547 126.751 29.696C126.356 29.2267 125.673 28.992 124.703 28.992C124.212 28.992 123.892 29.0827 123.743 29.264C123.593 29.4453 123.519 29.8133 123.519 30.368V38.304C123.519 38.688 123.551 38.976 123.615 39.168C123.679 39.36 123.801 39.488 123.983 39.552C124.175 39.616 124.452 39.6587 124.815 39.68V40C124.569 39.9787 124.26 39.968 123.887 39.968C123.524 39.9573 123.156 39.952 122.783 39.952C122.367 39.952 121.977 39.9573 121.615 39.968C121.252 39.968 120.959 39.9787 120.735 40V39.68C121.097 39.6587 121.369 39.616 121.551 39.552C121.743 39.488 121.871 39.36 121.935 39.168C121.999 38.976 122.031 38.688 122.031 38.304V30.368C122.031 29.9733 121.999 29.6853 121.935 29.504C121.871 29.312 121.743 29.184 121.551 29.12C121.369 29.0453 121.097 29.0027 120.735 28.992V28.672ZM123.279 34.352C123.855 34.3733 124.308 34.4 124.639 34.432C124.969 34.4533 125.236 34.4747 125.439 34.496C125.652 34.5173 125.855 34.544 126.047 34.576C126.761 34.6933 127.273 34.912 127.583 35.232C127.903 35.5413 128.137 36.0267 128.286 36.688L128.687 38.32C128.793 38.7893 128.9 39.1307 129.007 39.344C129.124 39.5467 129.3 39.6427 129.535 39.632C129.716 39.6213 129.865 39.5627 129.983 39.456C130.111 39.3493 130.244 39.2053 130.383 39.024L130.623 39.2C130.399 39.5307 130.164 39.7867 129.919 39.968C129.684 40.1387 129.348 40.224 128.911 40.224C128.516 40.224 128.169 40.1067 127.871 39.872C127.572 39.6373 127.348 39.1787 127.199 38.496L126.847 36.896C126.751 36.4373 126.639 36.0427 126.511 35.712C126.393 35.3707 126.223 35.104 125.999 34.912C125.785 34.72 125.465 34.624 125.039 34.624H123.311L123.279 34.352ZM135.606 28.592L139.51 38.656C139.67 39.0613 139.851 39.3333 140.054 39.472C140.256 39.6 140.443 39.6693 140.614 39.68V40C140.4 39.9787 140.139 39.968 139.83 39.968C139.52 39.9573 139.211 39.952 138.902 39.952C138.486 39.952 138.096 39.9573 137.734 39.968C137.371 39.968 137.078 39.9787 136.854 40V39.68C137.398 39.6587 137.744 39.568 137.894 39.408C138.043 39.2373 138.011 38.88 137.798 38.336L134.822 30.384L135.078 30.176L132.294 37.408C132.123 37.8347 132.022 38.1973 131.99 38.496C131.958 38.784 131.984 39.0133 132.07 39.184C132.166 39.3547 132.32 39.4773 132.534 39.552C132.758 39.6267 133.035 39.6693 133.366 39.68V40C133.067 39.9787 132.752 39.968 132.422 39.968C132.102 39.9573 131.803 39.952 131.526 39.952C131.259 39.952 131.03 39.9573 130.838 39.968C130.656 39.968 130.486 39.9787 130.325 40V39.68C130.539 39.6267 130.758 39.504 130.982 39.312C131.206 39.1093 131.408 38.768 131.59 38.288L135.35 28.592C135.392 28.592 135.435 28.592 135.478 28.592C135.52 28.592 135.563 28.592 135.606 28.592ZM137.558 35.392V35.712H132.789L132.95 35.392H137.558ZM153.467 28.672V28.992C153.104 29.0027 152.827 29.0453 152.635 29.12C152.454 29.184 152.331 29.312 152.267 29.504C152.203 29.6853 152.171 29.9733 152.171 30.368V38.304C152.171 38.688 152.203 38.976 152.267 39.168C152.331 39.36 152.454 39.488 152.635 39.552C152.827 39.616 153.104 39.6587 153.467 39.68V40C153.222 39.9787 152.912 39.968 152.539 39.968C152.176 39.9573 151.808 39.952 151.435 39.952C151.019 39.952 150.63 39.9573 150.267 39.968C149.904 39.968 149.611 39.9787 149.387 40V39.68C149.75 39.6587 150.022 39.616 150.203 39.552C150.395 39.488 150.523 39.36 150.587 39.168C150.651 38.976 150.683 38.688 150.683 38.304V29.504L150.747 29.552L146.827 40.08H146.571L142.539 29.696V38.144C142.539 38.528 142.571 38.832 142.635 39.056C142.71 39.2693 142.848 39.424 143.051 39.52C143.264 39.6053 143.579 39.6587 143.995 39.68V40C143.803 39.9787 143.552 39.968 143.243 39.968C142.934 39.9573 142.64 39.952 142.363 39.952C142.096 39.952 141.824 39.9573 141.547 39.968C141.28 39.968 141.056 39.9787 140.875 40V39.68C141.238 39.6587 141.51 39.6053 141.691 39.52C141.883 39.424 142.011 39.2693 142.075 39.056C142.139 38.832 142.171 38.528 142.171 38.144V30.368C142.171 29.9733 142.139 29.6853 142.075 29.504C142.011 29.312 141.883 29.184 141.691 29.12C141.51 29.0453 141.238 29.0027 140.875 28.992V28.672C141.056 28.6827 141.28 28.6933 141.547 28.704C141.824 28.7147 142.096 28.72 142.363 28.72C142.598 28.72 142.838 28.7147 143.083 28.704C143.339 28.6933 143.552 28.6827 143.723 28.672L147.355 38.24L147.083 38.368L150.683 28.72C150.811 28.72 150.934 28.72 151.051 28.72C151.179 28.72 151.307 28.72 151.435 28.72C151.808 28.72 152.176 28.7147 152.539 28.704C152.912 28.6933 153.222 28.6827 153.467 28.672ZM158.237 28.496C158.77 28.496 159.175 28.56 159.453 28.688C159.73 28.8053 159.975 28.9387 160.189 29.088C160.317 29.1627 160.418 29.2213 160.493 29.264C160.578 29.296 160.658 29.312 160.733 29.312C160.839 29.312 160.914 29.2533 160.957 29.136C161.01 29.0187 161.053 28.8427 161.085 28.608H161.453C161.442 28.7893 161.426 29.008 161.405 29.264C161.394 29.5093 161.383 29.84 161.373 30.256C161.373 30.6613 161.373 31.2 161.373 31.872H161.005C160.973 31.36 160.861 30.8693 160.669 30.4C160.477 29.9307 160.194 29.5467 159.821 29.248C159.458 28.9493 158.978 28.8 158.381 28.8C157.815 28.8 157.346 28.9707 156.973 29.312C156.61 29.6533 156.429 30.1013 156.429 30.656C156.429 31.136 156.551 31.5413 156.797 31.872C157.042 32.192 157.367 32.4853 157.773 32.752C158.189 33.008 158.637 33.2853 159.117 33.584C159.671 33.9253 160.162 34.2667 160.589 34.608C161.026 34.9387 161.367 35.3067 161.613 35.712C161.869 36.1173 161.997 36.608 161.997 37.184C161.997 37.8667 161.842 38.432 161.533 38.88C161.223 39.328 160.813 39.664 160.301 39.888C159.789 40.112 159.223 40.224 158.605 40.224C158.039 40.224 157.591 40.16 157.261 40.032C156.93 39.904 156.647 39.7707 156.413 39.632C156.178 39.4827 155.997 39.408 155.869 39.408C155.762 39.408 155.682 39.4667 155.629 39.584C155.586 39.7013 155.549 39.8773 155.517 40.112H155.149C155.17 39.888 155.181 39.6267 155.181 39.328C155.191 39.0187 155.197 38.6187 155.197 38.128C155.207 37.6373 155.213 37.0187 155.213 36.272H155.581C155.623 36.912 155.741 37.5093 155.933 38.064C156.135 38.6187 156.439 39.0667 156.845 39.408C157.261 39.7387 157.81 39.904 158.493 39.904C158.845 39.904 159.175 39.8347 159.485 39.696C159.805 39.5467 160.066 39.3173 160.269 39.008C160.471 38.688 160.573 38.2773 160.573 37.776C160.573 37.3387 160.466 36.96 160.253 36.64C160.05 36.3093 159.762 36.0053 159.389 35.728C159.015 35.44 158.578 35.1467 158.077 34.848C157.575 34.5387 157.106 34.224 156.669 33.904C156.231 33.584 155.879 33.216 155.613 32.8C155.357 32.3733 155.229 31.8613 155.229 31.264C155.229 30.6347 155.367 30.1173 155.645 29.712C155.933 29.296 156.306 28.992 156.765 28.8C157.223 28.5973 157.714 28.496 158.237 28.496Z" fill="#F3F3F3"/>
</svg>
